# xmcd
#
# Track frame offsets:
#	150
#	16350
#	44775
#	63075
#	77400
#	92475
#	114900
#	133650
#	156525
#	188400
#	203700
#	220725
#
# Disc length: 3282 seconds
#
# Revision: 1
# Processed by: cddbd v1.5PL3 Copyright (c) Steve Scherf et al.
# Submitted via: audiograbber 1.83.01
#
DISCID=980cd00c
DTITLE=Eric Steckel Band - High Action
DYEAR=2004
DGENRE=Blues-Rock
TTITLE0=Funky C Funky Do
TTITLE1=Slow Train
TTITLE2=Espirita
TTITLE3=Hey Sister
TTITLE4=Char-Broiled
TTITLE5=Some People Tell Me
TTITLE6=Blues is a Feelin'
TTITLE7=Oh Yeah
TTITLE8=Born Under a Bad Sign
TTITLE9=Further on up the Road
TTITLE10=Lucille
TTITLE11=Never Run From the Rain.
EXTD=
EXTT0=
EXTT1=
EXTT2=
EXTT3=
EXTT4=
EXTT5=
EXTT6=
EXTT7=
EXTT8=
EXTT9=
EXTT10=
EXTT11=
PLAYORDER=
